<svg xmlns="http://www.w3.org/2000/svg" viewBox="0 0 100 100" width="100" height="100">
  <!-- Simple cloud icon for Strato -->
  <defs>
    <linearGradient id="grad" x1="0%" y1="0%" x2="100%" y2="100%">
      <stop offset="0%" style="stop-color:#3b82f6;stop-opacity:1" />
      <stop offset="100%" style="stop-color:#1d4ed8;stop-opacity:1" />
    </linearGradient>
  </defs>

  <!-- Cloud shape -->
  <path d="M 75 45 C 75 38 69 32 62 32 C 61 32 60 32 59 33 C 56 26 49 21 41 21 C 30 21 21 30 21 41 C 21 42 21 43 21 44 C 15 46 10 52 10 59 C 10 67 16 74 24 74 L 72 74 C 82 74 90 66 90 56 C 90 48 84 42 75 45 Z"
        fill="url(#grad)"
        stroke="#1e40af"
        stroke-width="2"/>

  <!-- Abstract layers to represent virtualization -->
  <rect x="35" y="45" width="30" height="3" rx="1.5" fill="#fff" opacity="0.8"/>
  <rect x="35" y="52" width="30" height="3" rx="1.5" fill="#fff" opacity="0.6"/>
  <rect x="35" y="59" width="30" height="3" rx="1.5" fill="#fff" opacity="0.4"/>
</svg>
